<?xml version="1.0" encoding="utf-8"?>
<!-- Generator: Adobe Illustrator 24.0.2, SVG Export Plug-In . SVG Version: 6.00 Build 0)  -->
<svg version="1.1" id="Layer_1" xmlns="http://www.w3.org/2000/svg" xmlns:xlink="http://www.w3.org/1999/xlink" x="0px" y="0px"
	 viewBox="0 0 157 95" style="enable-background:new 0 0 157 95;" xml:space="preserve">
<style type="text/css">
	.st0{fill:#FFFFFF;}
	.st1{fill:#E0CB26;}
	.st2{fill:#A39634;}
	.st3{fill:#103C68;}
</style>
<g>
	<path class="st0" d="M11.6,90.2c0,0.4-0.1,0.9-0.2,1.3c-0.1,0.4-0.4,0.8-0.6,1.1c-0.3,0.3-0.7,0.5-1.1,0.7c-1,0.3-2,0.3-3,0
		c-0.4-0.2-0.8-0.4-1.1-0.7c-0.3-0.3-0.5-0.7-0.7-1.1c-0.2-0.4-0.2-0.9-0.2-1.3v-5h1.8v4.9c0,0.2,0,0.5,0.1,0.7
		C6.7,91,6.8,91.2,7,91.4c0.2,0.2,0.3,0.3,0.5,0.4c0.2,0.1,0.4,0.1,0.7,0.1c0.2,0,0.4,0,0.6-0.1c0.2-0.1,0.4-0.2,0.5-0.4
		c0.1-0.2,0.3-0.3,0.3-0.6c0.1-0.2,0.1-0.5,0.1-0.7v-4.9h1.8L11.6,90.2z"/>
	<path class="st0" d="M12.7,92.3c0-0.1,0-0.3,0.1-0.4c0.1-0.1,0.1-0.2,0.2-0.3c0.3-0.3,0.8-0.4,1.2-0.2c0.1,0.1,0.2,0.1,0.3,0.2
		c0.1,0.1,0.2,0.2,0.2,0.3c0.1,0.3,0.1,0.6,0,0.8c-0.1,0.1-0.1,0.2-0.2,0.3c-0.1,0.1-0.2,0.2-0.3,0.2s-0.3,0.1-0.4,0.1
		c-0.1,0-0.3,0-0.4-0.1s-0.2-0.1-0.3-0.2c-0.1-0.1-0.2-0.2-0.2-0.3C12.8,92.6,12.7,92.5,12.7,92.3z"/>
	<path class="st0" d="M22.3,87.2c-0.1-0.2-0.4-0.3-0.6-0.4c-0.2-0.1-0.5-0.1-0.7-0.1c-0.1,0-0.3,0-0.4,0.1c-0.1,0-0.3,0.1-0.4,0.1
		c-0.1,0.1-0.2,0.2-0.3,0.3c-0.2,0.3-0.1,0.7,0.2,0.9c0.2,0.2,0.5,0.3,0.7,0.3c0.3,0.1,0.6,0.2,0.9,0.3s0.6,0.2,0.9,0.4
		c0.3,0.2,0.5,0.4,0.7,0.7c0.2,0.3,0.3,0.7,0.3,1.1c0,0.4-0.1,0.8-0.2,1.2c-0.2,0.3-0.4,0.6-0.7,0.8c-0.3,0.2-0.6,0.4-1,0.5
		c-0.9,0.2-1.8,0.2-2.7-0.1c-0.5-0.2-0.9-0.4-1.3-0.8l1.3-1.4c0.2,0.2,0.4,0.4,0.7,0.6c0.4,0.2,0.9,0.2,1.3,0.2
		c0.1,0,0.3-0.1,0.4-0.2c0.1-0.1,0.2-0.2,0.3-0.3c0.1-0.1,0.1-0.2,0.1-0.4c0-0.2-0.1-0.4-0.3-0.6c-0.2-0.2-0.5-0.3-0.7-0.4
		c-0.3-0.1-0.6-0.2-0.9-0.3c-0.3-0.1-0.6-0.2-0.9-0.4c-0.3-0.2-0.5-0.4-0.7-0.7C18,88.4,17.9,88,18,87.6c0-0.4,0.1-0.8,0.3-1.1
		c0.2-0.3,0.4-0.6,0.7-0.8c0.3-0.2,0.6-0.4,1-0.5c0.4-0.1,0.8-0.2,1.1-0.2c0.5,0,0.9,0.1,1.3,0.2c0.4,0.1,0.8,0.3,1.2,0.7L22.3,87.2
		z"/>
	<path class="st0" d="M24.9,92.3c0-0.1,0-0.3,0.1-0.4c0-0.1,0.1-0.2,0.2-0.3c0.1-0.1,0.2-0.2,0.3-0.2c0.3-0.1,0.6-0.1,0.8,0
		c0.1,0.1,0.2,0.1,0.3,0.2c0.1,0.1,0.2,0.2,0.2,0.3c0.1,0.3,0.1,0.6,0,0.8s-0.3,0.5-0.6,0.6c-0.3,0.1-0.6,0.1-0.8,0
		c-0.1-0.1-0.2-0.1-0.3-0.2C25.1,93,25,92.9,25,92.7C24.9,92.6,24.9,92.5,24.9,92.3z"/>
	<path class="st0" d="M34.2,85.2h2.7c0.6,0,1.2,0.1,1.8,0.2c0.5,0.1,1.1,0.4,1.5,0.7c0.4,0.3,0.8,0.8,1,1.3c0.3,0.6,0.4,1.2,0.4,1.9
		c0,0.6-0.1,1.2-0.4,1.7c-0.2,0.5-0.6,0.9-1,1.3c-0.4,0.3-0.9,0.6-1.5,0.8c-0.6,0.2-1.1,0.3-1.7,0.3h-2.9V85.2z M35.9,91.7h0.9
		c0.4,0,0.8,0,1.2-0.1c0.3-0.1,0.7-0.2,0.9-0.4c0.3-0.2,0.5-0.5,0.6-0.8c0.2-0.4,0.2-0.8,0.2-1.2c0-0.4-0.1-0.7-0.2-1
		c-0.1-0.3-0.3-0.5-0.6-0.7c-0.3-0.2-0.6-0.3-0.9-0.4c-0.3-0.1-0.7-0.1-1.1-0.1h-1C35.9,86.8,35.9,91.7,35.9,91.7z"/>
	<path class="st0" d="M44.5,85.2h1.8v8.1h-1.8V85.2z"/>
	<path class="st0" d="M57,92.7c-0.5,0.3-1.1,0.5-1.7,0.6c-0.6,0.1-1.2,0.2-1.8,0.2c-0.6,0-1.2-0.1-1.8-0.3c-0.5-0.2-1-0.5-1.4-0.8
		C50,92,49.7,91.5,49.5,91c-0.4-1.1-0.4-2.4,0-3.5c0.2-0.5,0.5-1,0.9-1.3c0.4-0.4,0.9-0.7,1.4-0.8c0.6-0.2,1.2-0.3,1.8-0.3
		c0.6,0,1.2,0.1,1.8,0.2c0.5,0.2,1,0.4,1.4,0.8l-1.3,1.4c-0.2-0.2-0.5-0.4-0.8-0.6c-0.4-0.1-0.8-0.2-1.1-0.2c-0.3,0-0.7,0.1-1,0.2
		c-0.3,0.1-0.6,0.3-0.8,0.5c-0.2,0.2-0.4,0.5-0.5,0.8c-0.2,0.7-0.2,1.4,0,2.1c0.1,0.3,0.3,0.6,0.5,0.8c0.2,0.2,0.5,0.4,0.8,0.5
		c0.3,0.1,0.7,0.2,1,0.2c0.3,0,0.7,0,1-0.1c0.2-0.1,0.5-0.2,0.7-0.3v-1.3h-1.5v-1.6H57L57,92.7z"/>
	<path class="st0" d="M60.2,85.2H62v8.1h-1.8V85.2z"/>
	<path class="st0" d="M66.9,86.8h-2.3v-1.6H71v1.6h-2.3v6.5h-1.8V86.8z"/>
	<path class="st0" d="M75.3,85.2h1.5l3.5,8.1h-2l-0.7-1.7h-3.1l-0.7,1.7h-2L75.3,85.2z M75.9,87.6l-1,2.5h2L75.9,87.6z"/>
	<path class="st0" d="M82.8,85.2h1.8v6.4h3.3v1.7h-5.1L82.8,85.2L82.8,85.2z"/>
	<path class="st0" d="M99.8,87.2c-0.2-0.2-0.4-0.3-0.6-0.4c-0.2-0.1-0.5-0.1-0.7-0.1c-0.1,0-0.3,0-0.4,0.1c-0.1,0-0.3,0.1-0.4,0.1
		s-0.2,0.2-0.3,0.3c-0.2,0.3-0.1,0.7,0.2,0.9c0.2,0.2,0.4,0.3,0.7,0.3c0.3,0.1,0.6,0.2,0.9,0.3s0.6,0.2,0.9,0.4s0.5,0.4,0.7,0.7
		c0.2,0.3,0.3,0.7,0.3,1.1c0,0.4-0.1,0.8-0.2,1.2c-0.2,0.3-0.4,0.6-0.7,0.8c-0.3,0.2-0.6,0.4-1,0.5c-0.9,0.2-1.8,0.2-2.7-0.1
		c-0.5-0.2-0.9-0.4-1.3-0.8l1.3-1.4c0.2,0.2,0.4,0.4,0.7,0.6c0.4,0.2,0.9,0.2,1.3,0.2c0.1,0,0.3-0.1,0.4-0.2
		c0.1-0.1,0.2-0.2,0.3-0.3c0.1-0.1,0.1-0.2,0.1-0.4c0-0.2-0.1-0.4-0.3-0.6c-0.2-0.2-0.4-0.3-0.7-0.4c-0.3-0.1-0.6-0.2-0.9-0.3
		c-0.3-0.1-0.6-0.2-0.9-0.4c-0.3-0.2-0.5-0.4-0.7-0.7c-0.2-0.3-0.3-0.7-0.3-1.1c0-0.4,0.1-0.8,0.3-1.1c0.2-0.3,0.4-0.6,0.7-0.8
		c0.3-0.2,0.6-0.4,1-0.5c0.4-0.1,0.8-0.2,1.2-0.2c0.4,0,0.9,0.1,1.3,0.2c0.4,0.1,0.8,0.3,1.2,0.7L99.8,87.2z"/>
	<path class="st0" d="M104.1,85.2h5.5v1.6h-3.7v1.5h3.5V90h-3.5v1.7h3.9v1.7h-5.7V85.2z"/>
	<path class="st0" d="M112.9,85.2h3.1c0.4,0,0.8,0,1.2,0.1c0.3,0.1,0.7,0.2,1,0.4c0.3,0.2,0.5,0.4,0.7,0.8c0.2,0.4,0.3,0.8,0.2,1.2
		c0,0.5-0.1,1-0.4,1.5c-0.3,0.4-0.8,0.7-1.3,0.8l2.1,3.4h-2.1l-1.7-3.2h-0.9v3.2h-1.8L112.9,85.2L112.9,85.2z M114.7,88.6h1.1
		c0.2,0,0.3,0,0.5,0c0.2,0,0.3,0,0.5-0.1c0.1-0.1,0.3-0.2,0.4-0.3c0.1-0.2,0.2-0.3,0.1-0.5c0-0.2,0-0.3-0.1-0.5
		c-0.1-0.1-0.2-0.2-0.3-0.3c-0.1-0.1-0.3-0.1-0.4-0.1c-0.2,0-0.3,0-0.5,0h-1.2L114.7,88.6L114.7,88.6z"/>
	<path class="st0" d="M121.3,85.2h2l2,5.3h0l2-5.3h1.9l-3.4,8.1h-1.4L121.3,85.2z"/>
	<path class="st0" d="M131.8,85.2h1.8v8.1h-1.8V85.2z"/>
	<path class="st0" d="M142.2,87.3c-0.2-0.2-0.4-0.4-0.6-0.5c-0.3-0.1-0.6-0.2-0.9-0.2c-0.6,0-1.2,0.3-1.7,0.7
		c-0.2,0.2-0.4,0.5-0.5,0.8c-0.2,0.7-0.2,1.4,0,2.1c0.1,0.3,0.3,0.6,0.5,0.8c0.2,0.2,0.4,0.4,0.7,0.5s0.6,0.2,0.9,0.2
		c0.3,0,0.7-0.1,1-0.2c0.3-0.2,0.5-0.4,0.7-0.6l1.5,1.1c-0.3,0.5-0.8,0.8-1.3,1.1c-0.5,0.2-1.1,0.3-1.6,0.3c-0.6,0-1.2-0.1-1.8-0.3
		c-0.5-0.2-1-0.5-1.4-0.8c-0.4-0.4-0.7-0.8-0.9-1.3c-0.4-1.1-0.4-2.4,0-3.5c0.2-0.5,0.5-1,0.9-1.3c0.4-0.4,0.9-0.7,1.4-0.8
		c0.6-0.2,1.1-0.3,1.8-0.3c0.2,0,0.5,0,0.7,0.1c0.2,0,0.5,0.1,0.7,0.2c0.2,0.1,0.5,0.2,0.7,0.4c0.2,0.2,0.4,0.3,0.6,0.6L142.2,87.3z
		"/>
	<path class="st0" d="M146.6,85.2h5.5v1.6h-3.7v1.5h3.5V90h-3.5v1.7h3.9v1.7h-5.7L146.6,85.2L146.6,85.2z"/>
	<path class="st1" d="M54.2,44v-6.6H27.4c3.9,6.5,11.9,6.6,11.9,6.6C38.4,44,44.7,44,54.2,44z"/>
	<path class="st1" d="M54.2,26.6H15.4c2.2,5.1,8.2,8.2,10.9,8.2h27.8L54.2,26.6L54.2,26.6z"/>
	<path class="st1" d="M54.2,11.6H2.7c-0.4,0-0.7,0.4-0.7,0.8c0,0,0,0.1,0,0.1c1.2,6,8.9,11.6,12.4,11.6h39.7V11.6z"/>
	<path class="st1" d="M102.8,44v-6.6h26.8c-3.9,6.5-11.9,6.6-11.8,6.6C118.6,44,112.3,44,102.8,44z"/>
	<path class="st1" d="M102.8,26.6h38.8c-2.2,5.1-8.2,8.2-10.9,8.2h-27.8L102.8,26.6L102.8,26.6z"/>
	<path class="st1" d="M102.8,11.6h51.5c0.4,0,0.7,0.4,0.7,0.8c0,0,0,0.1,0,0.1c-1.2,6-8.9,11.6-12.4,11.6h-39.7V11.6z"/>
	<path class="st2" d="M28.3,12.6c0.7,21.6,22.9,39,50.2,39s49.5-17.4,50.2-39c0-0.6-0.3-1-0.8-1H29.2C28.5,11.6,28.3,12.1,28.3,12.6
		z"/>
	<path class="st0" d="M100.6-0.1H56.4c-1.3,0-2.3,1-2.3,2.3v43.1c0,1,0.2,1.3,0.5,1.7c2,3.1,11.8,15.6,17.2,20.7
		c0.8,0.8,4.6,4.9,6.7,4.9s5.8-4.1,6.7-4.9c5.4-5,15.3-17.6,17.2-20.7c0.3-0.4,0.5-0.7,0.5-1.7V2.3C102.9,1,101.9-0.1,100.6-0.1
		L100.6-0.1z"/>
	<path class="st3" d="M100.6-0.1H56.4c-1.3,0-2.3,1-2.3,2.3v43.1c0,1,0.2,1.3,0.5,1.7c1.2,1.8,5.1,7,9.3,12V23.3h9.8v46.3
		c1.5,1.4,3.5,3.2,4.9,3.2s3.4-1.7,4.9-3.2V23.3h9.8V59c4.2-5,8.1-10.1,9.3-12c0.3-0.4,0.5-0.7,0.5-1.7V2.3
		C102.9,1,101.9-0.1,100.6-0.1L100.6-0.1z M65.9,14.7l-2.7-1.5l-2.7,1.5l0.6-3l-2.2-2.1l3-0.4l1.3-2.8l1.3,2.8l3,0.4l-2.2,2.1
		L65.9,14.7z M81.7,12.9l0.9,4.6l-4.1-2.2l-4.1,2.2l0.9-4.6l-3.4-3.2l4.6-0.6l2-4.2l2,4.2l4.6,0.6L81.7,12.9z M96.5,14.7l-2.7-1.5
		l-2.7,1.5l0.6-3l-2.2-2.1l3-0.4l1.3-2.8l1.3,2.8l3,0.4l-2.2,2.1L96.5,14.7z"/>
</g>
</svg>
