<?xml version="1.0" encoding="UTF-8"?>
<svg width="153px" height="74px" viewBox="0 0 153 74" version="1.1" xmlns="http://www.w3.org/2000/svg" xmlns:xlink="http://www.w3.org/1999/xlink">
    <title>usds-logo-footer</title>
    <g id="Page-1" stroke="none" stroke-width="1" fill="none" fill-rule="evenodd">
        <g id="usds-logo-footer" fill-rule="nonzero">
            <path d="M52.2,45 L52.2,38.4 L25.4,38.4 C29.3,44.9 37.3,45 37.3,45 C36.4,45 42.7,45 52.2,45 Z" id="Path" fill="#E0CB26"></path>
            <path d="M52.2,27.6 L13.4,27.6 C15.6,32.7 21.6,35.8 24.3,35.8 L52.1,35.8 L52.2,27.6 L52.2,27.6 Z" id="Path" fill="#E0CB26"></path>
            <path d="M52.2,12.6 L0.7,12.6 C0.3,12.6 0,13 0,13.4 C0,13.4 0,13.5 0,13.5 C1.2,19.5 8.9,25.1 12.4,25.1 L52.1,25.1 L52.1,12.6 L52.2,12.6 Z" id="Path" fill="#E0CB26"></path>
            <path d="M100.8,45 L100.8,38.4 L127.6,38.4 C123.7,44.9 115.7,45 115.8,45 C116.6,45 110.3,45 100.8,45 Z" id="Path" fill="#E0CB26"></path>
            <path d="M100.8,27.6 L139.6,27.6 C137.4,32.7 131.4,35.8 128.7,35.8 L100.9,35.8 L100.8,27.6 L100.8,27.6 Z" id="Path" fill="#E0CB26"></path>
            <path d="M100.8,12.6 L152.3,12.6 C152.7,12.6 153,13 153,13.4 C153,13.4 153,13.5 153,13.5 C151.8,19.5 144.1,25.1 140.6,25.1 L100.9,25.1 L100.9,12.6 L100.8,12.6 Z" id="Path" fill="#E0CB26"></path>
            <path d="M26.3,13.6 C27,35.2 49.2,52.6 76.5,52.6 C103.8,52.6 126,35.2 126.7,13.6 C126.7,13 126.4,12.6 125.9,12.6 L27.2,12.6 C26.5,12.6 26.3,13.1 26.3,13.6 Z" id="Path" fill="#A39634"></path>
            <path d="M98.6,0.9 L54.4,0.9 C53.1,0.9 52.1,1.9 52.1,3.2 L52.1,46.3 C52.1,47.3 52.3,47.6 52.6,48 C54.6,51.1 64.4,63.6 69.8,68.7 C70.6,69.5 74.4,73.6 76.5,73.6 C78.6,73.6 82.3,69.5 83.2,68.7 C88.6,63.7 98.5,51.1 100.4,48 C100.7,47.6 100.9,47.3 100.9,46.3 L100.9,3.3 C100.9,2 99.9,0.9 98.6,0.9 L98.6,0.9 Z" id="Path" fill="#FFFFFF"></path>
            <path d="M98.6,0.9 L54.4,0.9 C53.1,0.9 52.1,1.9 52.1,3.2 L52.1,46.3 C52.1,47.3 52.3,47.6 52.6,48 C53.8,49.8 57.7,55 61.9,60 L61.9,24.3 L71.7,24.3 L71.7,70.6 C73.2,72 75.2,73.8 76.6,73.8 C78,73.8 80,72.1 81.5,70.6 L81.5,24.3 L91.3,24.3 L91.3,60 C95.5,55 99.4,49.9 100.6,48 C100.9,47.6 101.1,47.3 101.1,46.3 L101.1,3.3 C100.9,2 99.9,0.9 98.6,0.9 L98.6,0.9 Z M63.9,15.7 L61.2,14.2 L58.5,15.7 L59.1,12.7 L56.9,10.6 L59.9,10.2 L61.2,7.4 L62.5,10.2 L65.5,10.6 L63.3,12.7 L63.9,15.7 Z M79.7,13.9 L80.6,18.5 L76.5,16.3 L72.4,18.5 L73.3,13.9 L69.9,10.7 L74.5,10.1 L76.5,5.9 L78.5,10.1 L83.1,10.7 L79.7,13.9 Z M94.5,15.7 L91.8,14.2 L89.1,15.7 L89.7,12.7 L87.5,10.6 L90.5,10.2 L91.8,7.4 L93.1,10.2 L96.1,10.6 L93.9,12.7 L94.5,15.7 Z" id="Shape" fill="#103C68"></path>
        </g>
    </g>
</svg>